REM DIRINDEX 1\2,1\3,1\4
REM DIRNAME cjc151,folder01,folder02,folder03
TITLE ""
FILE "124 124_TOEFL_3900.mp3" MP3
  TRACK 01 AUDIO
    TITLE "2:cjc151_5381"
    INDEX 01 00:00:00
  TRACK 02 AUDIO
    TITLE "0:"
    INDEX 01 00:01:07
  TRACK 03 AUDIO
    TITLE "3:cjc151_5382"
    INDEX 01 00:02:59
  TRACK 04 AUDIO
    TITLE "0:"
    INDEX 01 00:08:28
  TRACK 05 AUDIO
    TITLE "2:cjc151_5383"
    INDEX 01 00:10:08
  TRACK 06 AUDIO
    TITLE "0:"
    INDEX 01 00:11:11
  TRACK 07 AUDIO
    TITLE "3:cjc151_5384"
    INDEX 01 00:12:65
  TRACK 08 AUDIO
    TITLE "0:"
    INDEX 01 00:16:20
  TRACK 09 AUDIO
    TITLE "2:cjc151_5385"
    INDEX 01 00:17:74
  TRACK 10 AUDIO
    TITLE "0:"
    INDEX 01 00:19:26
  TRACK 11 AUDIO
    TITLE "3:cjc151_5386"
    INDEX 01 00:21:04
  TRACK 12 AUDIO
    TITLE "0:"
    INDEX 01 00:24:72
  TRACK 13 AUDIO
    TITLE "2:cjc151_5387"
    INDEX 01 00:26:50
  TRACK 14 AUDIO
    TITLE "0:"
    INDEX 01 00:27:59
  TRACK 15 AUDIO
    TITLE "3:cjc151_5388"
    INDEX 01 00:29:36
  TRACK 16 AUDIO
    TITLE "0:"
    INDEX 01 00:33:09
  TRACK 17 AUDIO
    TITLE "2:cjc151_5389"
    INDEX 01 00:34:65
  TRACK 18 AUDIO
    TITLE "0:"
    INDEX 01 00:35:72
  TRACK 19 AUDIO
    TITLE "3:cjc151_5390"
    INDEX 01 00:37:52
  TRACK 20 AUDIO
    TITLE "0:"
    INDEX 01 00:42:00
  TRACK 21 AUDIO
    TITLE "2:cjc151_5391"
    INDEX 01 00:43:54
  TRACK 22 AUDIO
    TITLE "0:"
    INDEX 01 00:45:02
  TRACK 23 AUDIO
    TITLE "3:cjc151_5392"
    INDEX 01 00:46:58
  TRACK 24 AUDIO
    TITLE "0:"
    INDEX 01 00:52:00
  TRACK 25 AUDIO
    TITLE "2:cjc151_5393"
    INDEX 01 00:53:57
  TRACK 26 AUDIO
    TITLE "0:"
    INDEX 01 00:54:52
  TRACK 27 AUDIO
    TITLE "3:cjc151_5394"
    INDEX 01 00:56:31
  TRACK 28 AUDIO
    TITLE "0:"
    INDEX 01 01:00:70
  TRACK 29 AUDIO
    TITLE "2:cjc151_5395"
    INDEX 01 01:02:50
  TRACK 30 AUDIO
    TITLE "0:"
    INDEX 01 01:03:57
  TRACK 31 AUDIO
    TITLE "3:cjc151_5396"
    INDEX 01 01:05:34
  TRACK 32 AUDIO
    TITLE "0:"
    INDEX 01 01:09:59
  TRACK 33 AUDIO
    TITLE "2:cjc151_5397"
    INDEX 01 01:11:37
  TRACK 34 AUDIO
    TITLE "0:"
    INDEX 01 01:12:70
  TRACK 35 AUDIO
    TITLE "3:cjc151_5398"
    INDEX 01 01:14:49
  TRACK 36 AUDIO
    TITLE "0:"
    INDEX 01 01:18:54
  TRACK 37 AUDIO
    TITLE "2:cjc151_5399"
    INDEX 01 01:20:34
  TRACK 38 AUDIO
    TITLE "0:"
    INDEX 01 01:21:39
  TRACK 39 AUDIO
    TITLE "3:cjc151_5400"
    INDEX 01 01:23:16
  TRACK 40 AUDIO
    TITLE "0:"
    INDEX 01 01:27:18
  TRACK 41 AUDIO
    TITLE "2:cjc151_5401"
    INDEX 01 01:28:72
  TRACK 42 AUDIO
    TITLE "0:"
    INDEX 01 01:30:03
  TRACK 43 AUDIO
    TITLE "3:cjc151_5402"
    INDEX 01 01:31:55
  TRACK 44 AUDIO
    TITLE "0:"
    INDEX 01 01:35:55
  TRACK 45 AUDIO
    TITLE "2:cjc151_5403"
    INDEX 01 01:37:34
  TRACK 46 AUDIO
    TITLE "0:"
    INDEX 01 01:38:59
  TRACK 47 AUDIO
    TITLE "3:cjc151_5404"
    INDEX 01 01:40:40
  TRACK 48 AUDIO
    TITLE "0:"
    INDEX 01 01:44:11
  TRACK 49 AUDIO
    TITLE "2:cjc151_5405"
    INDEX 01 01:45:65
  TRACK 50 AUDIO
    TITLE "0:"
    INDEX 01 01:47:03
  TRACK 51 AUDIO
    TITLE "3:cjc151_5406"
    INDEX 01 01:48:60
  TRACK 52 AUDIO
    TITLE "0:"
    INDEX 01 01:53:04
  TRACK 53 AUDIO
    TITLE "2:cjc151_5407"
    INDEX 01 01:54:56
  TRACK 54 AUDIO
    TITLE "0:"
    INDEX 01 01:56:02
  TRACK 55 AUDIO
    TITLE "3:cjc151_5408"
    INDEX 01 01:57:57
  TRACK 56 AUDIO
    TITLE "0:"
    INDEX 01 02:01:72
  TRACK 57 AUDIO
    TITLE "2:cjc151_5409"
    INDEX 01 02:03:51
  TRACK 58 AUDIO
    TITLE "0:"
    INDEX 01 02:04:59
  TRACK 59 AUDIO
    TITLE "3:cjc151_5410"
    INDEX 01 02:06:36
  TRACK 60 AUDIO
    TITLE "0:"
    INDEX 01 02:10:26
  TRACK 61 AUDIO
    TITLE "2:cjc151_5411"
    INDEX 01 02:12:05
  TRACK 62 AUDIO
    TITLE "0:"
    INDEX 01 02:13:12
  TRACK 63 AUDIO
    TITLE "3:cjc151_5412"
    INDEX 01 02:14:67
  TRACK 64 AUDIO
    TITLE "0:"
    INDEX 01 02:18:10
  TRACK 65 AUDIO
    TITLE "2:cjc151_5413"
    INDEX 01 02:19:64
  TRACK 66 AUDIO
    TITLE "0:"
    INDEX 01 02:20:69
  TRACK 67 AUDIO
    TITLE "3:cjc151_5414"
    INDEX 01 02:22:47
  TRACK 68 AUDIO
    TITLE "0:"
    INDEX 01 02:27:24
  TRACK 69 AUDIO
    TITLE "2:cjc151_5415"
    INDEX 01 02:29:02
  TRACK 70 AUDIO
    TITLE "0:"
    INDEX 01 02:30:19
  TRACK 71 AUDIO
    TITLE "3:cjc151_5416"
    INDEX 01 02:31:67
  TRACK 72 AUDIO
    TITLE "0:"
    INDEX 01 02:35:63
  TRACK 73 AUDIO
    TITLE "2:cjc151_5417"
    INDEX 01 02:37:42
  TRACK 74 AUDIO
    TITLE "0:"
    INDEX 01 02:38:46
  TRACK 75 AUDIO
    TITLE "3:cjc151_5418"
    INDEX 01 02:40:25
  TRACK 76 AUDIO
    TITLE "0:"
    INDEX 01 02:44:56
  TRACK 77 AUDIO
    TITLE "2:cjc151_5419"
    INDEX 01 02:46:35
  TRACK 78 AUDIO
    TITLE "0:"
    INDEX 01 02:47:41
  TRACK 79 AUDIO
    TITLE "3:cjc151_5420"
    INDEX 01 02:49:20
  TRACK 80 AUDIO
    TITLE "0:"
    INDEX 01 02:52:60
  TRACK 81 AUDIO
    TITLE "2:cjc151_5421"
    INDEX 01 02:54:39
  TRACK 82 AUDIO
    TITLE "0:"
    INDEX 01 02:55:54
  TRACK 83 AUDIO
    TITLE "3:cjc151_5422"
    INDEX 01 02:57:31
  TRACK 84 AUDIO
    TITLE "0:"
    INDEX 01 03:01:21
  TRACK 85 AUDIO
    TITLE "2:cjc151_5423"
    INDEX 01 03:03:03
  TRACK 86 AUDIO
    TITLE "0:"
    INDEX 01 03:04:27
  TRACK 87 AUDIO
    TITLE "3:cjc151_5424"
    INDEX 01 03:06:07
  TRACK 88 AUDIO
    TITLE "0:"
    INDEX 01 03:09:58
